# xmcd CD database file
#
# Track frame offsets:
#	150
#	47451
#	62470
#	98079
#	130288
#	160079
#	190152
#	210730
#	248780
#
# Disc length: 3702 seconds
#
# Revision: 1
# Processed by: cddbd v1.5.2PL0 Copyright (c) Steve Scherf et al.
# Submitted via: CDex 1.70beta2
#
DISCID=710e7409
DTITLE=Matthew Shipp Quartet - Cosmic Suite
DYEAR=2008
DGENRE=Jazz
TTITLE0=Cosmic Suite: Part One
TTITLE1=Cosmic Suite: Part Two
TTITLE2=Cosmic Suite: Part Three
TTITLE3=Cosmic Suite: Part Four
TTITLE4=Cosmic Suite: Part Five
TTITLE5=Cosmic Suite: Part Six
TTITLE6=Cosmic Suite: Part Seven
TTITLE7=Cosmic Suite: Part Eight
TTITLE8=Cosmic Suite: Part Nine
EXTD=YEAR: 2008
EXTT0=
EXTT1=
EXTT2=
EXTT3=
EXTT4=
EXTT5=
EXTT6=
EXTT7=
EXTT8=
PLAYORDER=
